<svg width="891" height="934" viewBox="0 0 891 934" fill="none" xmlns="http://www.w3.org/2000/svg">
<g clip-path="url(#clip0_1306_1010)">
<path d="M330.58 395.44H879.99C888.34 395.44 893.11 404.38 888.09 410.63L472.38 929.21C471.391 930.398 470.152 931.354 468.753 932.01C467.353 932.666 465.826 933.006 464.28 933.006C462.734 933.006 461.207 932.666 459.807 932.01C458.408 931.354 457.169 930.398 456.18 929.21L242.23 662.32L220.67 635.41C215.67 629.16 220.42 620.23 228.77 620.23H391.77C393.318 620.216 394.849 620.549 396.25 621.205C397.652 621.861 398.889 622.823 399.87 624.02L456.22 694.28C457.209 695.466 458.447 696.421 459.846 697.076C461.245 697.731 462.77 698.07 464.315 698.07C465.86 698.07 467.385 697.731 468.784 697.076C470.183 696.421 471.421 695.466 472.41 694.28L531.8 620.23L559.27 585.94L567.37 575.83C572.37 569.58 567.62 560.65 559.27 560.65V560.24H165.42C163.873 560.252 162.342 559.918 160.941 559.262C159.539 558.606 158.302 557.646 157.32 556.45L2.07 362.68C1.29503 361.724 0.722593 360.62 0.387463 359.436C0.0523319 358.251 -0.0384917 357.011 0.12051 355.79C0.279512 354.57 0.685017 353.394 1.31239 352.335C1.93976 351.276 2.7759 350.356 3.76999 349.63L457.89 3.0101C459.736 1.62821 461.979 0.881348 464.285 0.881348C466.591 0.881348 468.834 1.62821 470.68 3.0101L884.18 318.58C891.57 324.22 887.31 335.43 877.78 335.43H551.43C549.12 335.434 546.873 334.683 545.03 333.29L470.68 276.56C468.834 275.178 466.591 274.431 464.285 274.431C461.979 274.431 459.736 275.178 457.89 276.56L380.74 335.43L328.51 375.29L324.18 378.6C316.8 384.24 321.07 395.44 330.58 395.44Z" fill="#0EA5E9"/>
</g>
<defs>
<clipPath id="clip0_1306_1010">
<rect width="890.14" height="932.13" fill="white" transform="translate(0 0.880127)"/>
</clipPath>
</defs>
</svg>
