<svg width="891" height="934" viewBox="0 0 891 934" fill="none" xmlns="http://www.w3.org/2000/svg">
<g clip-path="url(#clip0_1306_1006)">
<path d="M331.387 395.44H880.797C889.147 395.44 893.917 404.38 888.897 410.63L473.187 929.21C472.198 930.398 470.96 931.354 469.56 932.01C468.16 932.666 466.633 933.006 465.087 933.006C463.541 933.006 462.014 932.666 460.614 932.01C459.215 931.354 457.976 930.398 456.987 929.21L243.037 662.32L221.477 635.41C216.477 629.16 221.227 620.23 229.577 620.23H392.577C394.125 620.216 395.656 620.549 397.058 621.205C398.459 621.861 399.696 622.823 400.677 624.02L457.027 694.28C458.016 695.467 459.254 696.421 460.653 697.076C462.052 697.731 463.578 698.07 465.122 698.07C466.667 698.07 468.192 697.731 469.591 697.076C470.99 696.421 472.228 695.467 473.217 694.28L532.607 620.23L560.077 585.94L568.177 575.83C573.177 569.58 568.427 560.65 560.077 560.65V560.24H166.227C164.68 560.252 163.15 559.918 161.748 559.262C160.347 558.607 159.109 557.646 158.127 556.45L2.87712 362.68C2.10216 361.724 1.52972 360.62 1.19459 359.436C0.859461 358.251 0.768637 357.011 0.927639 355.791C1.08664 354.57 1.49215 353.394 2.11952 352.335C2.74689 351.276 3.58303 350.356 4.57712 349.63L458.697 3.01022C460.543 1.62833 462.786 0.88147 465.092 0.88147C467.398 0.88147 469.641 1.62833 471.487 3.01022L884.987 318.58C892.377 324.22 888.117 335.43 878.587 335.43H552.237C549.927 335.435 547.68 334.683 545.837 333.29L471.487 276.56C469.641 275.178 467.398 274.431 465.092 274.431C462.786 274.431 460.543 275.178 458.697 276.56L381.547 335.43L329.317 375.29L324.987 378.6C317.607 384.24 321.877 395.44 331.387 395.44Z" fill="#F8FAFC"/>
</g>
<defs>
<clipPath id="clip0_1306_1006">
<rect width="890.14" height="932.13" fill="white" transform="translate(0.807129 0.880249)"/>
</clipPath>
</defs>
</svg>
