<svg id="Layer_1" data-name="Layer 1" xmlns="http://www.w3.org/2000/svg" viewBox="0 0 890.14 932.13"><defs><style>.cls-1{fill:#a7a6ab;}</style></defs><path class="cls-1" d="M425.51,468.5H974.92c8.35,0,13.12,8.94,8.1,15.19L567.31,1002.27a10.54,10.54,0,0,1-16.2,0L337.16,735.38,315.6,708.47c-5-6.25-.25-15.18,8.1-15.18h163a10.35,10.35,0,0,1,8.1,3.79l56.35,70.26a10.54,10.54,0,0,0,16.19,0l59.39-74.05L654.2,659l8.1-10.11c5-6.25.25-15.18-8.1-15.18h0v-.41H260.35a10.38,10.38,0,0,1-8.1-3.79L97,435.74a9.08,9.08,0,0,1,1.7-13.05L552.82,76.07a10.67,10.67,0,0,1,12.79,0l413.5,315.57c7.39,5.64,3.13,16.85-6.4,16.85H646.36a10.58,10.58,0,0,1-6.4-2.14l-74.35-56.73a10.67,10.67,0,0,0-12.79,0l-77.15,58.87-52.23,39.86-4.33,3.31C411.73,457.3,416,468.5,425.51,468.5Z" transform="translate(-94.93 -73.94)"/></svg>