<svg xmlns="http://www.w3.org/2000/svg" width="53" height="40" viewBox="0 0 53 40" fill="none"><path fill-rule="evenodd" clip-rule="evenodd" d="M0.0014674 15.3134C0.205459 6.81996 7.06344 0 15.4839 0C23.9172 0 30.7623 6.82301 30.9663 15.3134C31.0328 18.0857 28.8698 20.3879 26.135 20.4554C23.4002 20.5229 21.1293 18.3302 21.0627 15.5578C20.9892 12.4991 18.5223 10.0427 15.4839 10.0427C12.4708 10.0427 10.0085 12.4724 9.90664 15.5022C9.92311 19.5646 11.4431 23.5612 13.1699 26.7381C14.018 28.2984 14.8672 29.5715 15.4966 30.4444C15.8099 30.8788 16.0649 31.2086 16.2325 31.4194C16.3163 31.5246 16.3779 31.5998 16.4137 31.643C16.4316 31.6646 16.4431 31.6781 16.4476 31.6835L16.4458 31.6814L16.4435 31.6787C16.4452 31.6808 16.447 31.6828 16.4487 31.6848C18.2392 33.7731 18.0259 36.9378 15.9694 38.7596C13.9095 40.5845 10.7804 40.371 8.98028 38.2828L12.71 34.9786C8.98028 38.2828 8.97933 38.2817 8.97834 38.2805L8.97145 38.2725L8.95976 38.2589C8.95102 38.2486 8.94041 38.2362 8.92799 38.2215C8.90314 38.1921 8.87103 38.1539 8.83213 38.107C8.75435 38.0132 8.64932 37.8848 8.52094 37.7234C8.26443 37.4009 7.91334 36.9453 7.49945 36.3714C6.6745 35.2275 5.58448 33.592 4.4934 31.5847C2.35124 27.6437 0 21.8951 0 15.4356V15.3745L0.0014674 15.3134ZM16.4425 31.6775L16.4432 31.6783L16.4435 31.6787C16.4432 31.6783 16.4428 31.6779 16.4425 31.6775Z" fill="white"></path><path fill-rule="evenodd" clip-rule="evenodd" d="M31.3587 15.4542V16.1185C31.3587 18.8578 29.141 21.0785 26.4054 21.0785C23.6698 21.0785 21.4521 18.8578 21.4521 16.1185V15.324L21.4536 15.2637C21.6576 6.874 28.5156 0.137329 36.936 0.137329C45.3565 0.137329 52.2144 6.874 52.4184 15.2637L52.4199 15.324V15.3844C52.4199 20.649 50.778 25.3704 49.2663 28.6372C48.4974 30.2988 47.7276 31.6581 47.1415 32.6146C46.8475 33.0945 46.5971 33.4773 46.4124 33.7508C46.32 33.8877 46.2438 33.9976 46.1865 34.0789C46.1579 34.1196 46.134 34.1531 46.1151 34.1794C46.1057 34.1925 46.0976 34.2038 46.0907 34.2133L46.0814 34.2261L46.0757 34.2339C46.0749 34.235 46.0741 34.2361 42.2426 31.4271L46.0741 34.2362C44.458 36.4464 41.3586 36.9263 39.1514 35.308C36.9484 33.6929 36.4667 30.5981 38.0716 28.3887C38.074 28.3854 38.0801 28.3769 38.0895 28.3635C38.1112 28.3326 38.1508 28.2758 38.2057 28.1944C38.3158 28.0315 38.4864 27.7717 38.6976 27.4269C39.122 26.7342 39.6995 25.7165 40.2779 24.4665C41.4529 21.9273 42.4994 18.7139 42.5133 15.45C42.4113 12.4573 39.9491 10.0573 36.936 10.0573C33.9216 10.0573 31.4585 12.4595 31.3587 15.4542Z" fill="white"></path><path d="M41.9357 36.7742C44.7862 36.7742 47.097 34.4634 47.097 31.6129C47.097 28.7624 44.7862 26.4516 41.9357 26.4516C39.0852 26.4516 36.7744 28.7624 36.7744 31.6129C36.7744 34.4634 39.0852 36.7742 41.9357 36.7742Z" fill="#B7E803"></path></svg>