<svg xmlns="http://www.w3.org/2000/svg" viewBox="0 0 284.3 284.3"><defs><style>.cls-1{fill:none;}.cls-2{fill:#282052;}.cls-3{fill:#fff;}.cls-4{fill:#2ce8e5;}</style></defs><title>placeholder-logo</title><g id="Layer_2" data-name="Layer 2"><g id="Layer_1-2" data-name="Layer 1"><circle class="cls-1" cx="142.15" cy="142.15" r="142.15"/><path class="cls-2" d="M142.17,254.78a45.05,45.05,0,0,1-41.25-26.65h-15a34.05,34.05,0,0,1-34-34V89.63a34,34,0,0,1,34-34h33.84a13.83,13.83,0,0,0-.83-8.16l-1.33-3.11L121,44a16,16,0,0,1,1.69-.09,16.14,16.14,0,0,1,14.44,9,19.15,19.15,0,0,0,10.26-20.49l-.59-3.33,3.35.41a20.65,20.65,0,0,1,17.94,23.18,13.71,13.71,0,0,0,2.87-6l.7-3.32,3,1.65a16.17,16.17,0,0,1,4.47,3.68,15.82,15.82,0,0,1,3.42,6.86h15.86a34.06,34.06,0,0,1,34,34V194.12a34.05,34.05,0,0,1-34,34h-15a45.52,45.52,0,0,1-24.21,23.32A45,45,0,0,1,142.17,254.78Z"/><path class="cls-3" d="M149.83,32a18.12,18.12,0,0,1,14,26.13h1.58a16.27,16.27,0,0,0,8-10.87,13.53,13.53,0,0,1,3.78,3.12,13.31,13.31,0,0,1,3.17,7.74h18a31.5,31.5,0,0,1,31.5,31.5V194.12a31.5,31.5,0,0,1-31.5,31.51H181.74a42.72,42.72,0,0,1-79.17,0H85.93a31.51,31.51,0,0,1-31.5-31.51V89.63a31.5,31.5,0,0,1,31.5-31.5h35.74c.12-.36.25-.73.34-1.11a16.28,16.28,0,0,0-.77-10.53,13.86,13.86,0,0,1,1.43-.08,13.59,13.59,0,0,1,13,9.84A21.72,21.72,0,0,0,149.83,32m-6.1-5.78,1.18,6.65A16.68,16.68,0,0,1,138,49.52a18.67,18.67,0,0,0-15.33-8.11,18.21,18.21,0,0,0-2,.11l-6.74.71,2.66,6.23a11.18,11.18,0,0,1,.9,4.67H85.93a36.54,36.54,0,0,0-36.5,36.5V194.12a36.56,36.56,0,0,0,36.49,36.51H99.33a47.69,47.69,0,0,0,60.78,23.13A48,48,0,0,0,185,230.63h13.39a36.54,36.54,0,0,0,36.5-36.51V89.63a36.54,36.54,0,0,0-36.5-36.5h-14a18.7,18.7,0,0,0-8.57-10.22L169.9,39.6l-.54,2.56a23.07,23.07,0,0,0-18.92-15.11l-6.71-.82Z"/><path class="cls-4" d="M177.44,209.35v.91a3.57,3.57,0,0,1,0,.57c0,.19,0,.43,0,.62a.67.67,0,0,1,0,.2c0,.33,0,.64-.07,1s-.06.64-.11,1-.11.9-.18,1.35-.17,1-.28,1.56c-.05.29-.11.57-.19.86s-.12.52-.18.78-.16.61-.25.92-.26.86-.4,1.32-.26.78-.4,1.16-.2.54-.31.81-.2.51-.31.76l0,.12c-.09.23-.19.47-.31.71a33.61,33.61,0,0,1-1.68,3.27l-.31.52c-.34.57-.71,1.12-1.08,1.68l-.32.46-.1.13c-.16.22-.32.45-.5.67s-.37.51-.57.75l-.32.39a22.76,22.76,0,0,1-1.52,1.72q-.33.38-.69.72l-.73.73-1.09,1c-.27.24-.53.46-.8.68h0c-.29.24-.58.48-.88.71-.65.5-1.32,1-2,1.44l-1,.63c-.32.19-.68.43-1,.61h0l-.92.52c-.78.43-1.59.81-2.41,1.17l-.8.35-1.29.5-1.15.4c-.38.13-.77.24-1.16.36l-1,.28-.43.1c-.27.08-.55.14-.82.2l-.18,0-1.13.23-1,.17-.53.07-.89.11-1.08.1-.43,0c-.27,0-.52,0-.78,0l-.51,0h-2a2.91,2.91,0,0,1-.51,0,6.87,6.87,0,0,1-.78,0,2,2,0,0,1-.43,0,9.85,9.85,0,0,1-1.08-.1l-.89-.11-.53-.07-.86-.14-.37-.07q-.47-.07-.93-.18c-.49-.1-1-.22-1.46-.34l-1-.28-1.17-.36c-.31-.1-.61-.2-.91-.32-.53-.18-1.05-.4-1.58-.61-.2-.09-.43-.17-.61-.26-.41-.17-.81-.36-1.2-.55l-.69-.35-.65-.33c-.32-.17-.61-.35-.92-.52h0c-.35-.19-.69-.4-1-.61s-.64-.43-1-.63c-.68-.46-1.35-.94-2-1.44-.3-.23-.59-.47-.88-.71h0c-.27-.22-.53-.43-.79-.68s-.74-.66-1.1-1l-.73-.73c-.25-.25-.56-.56-.82-.86s-.52-.58-.78-.86a6,6,0,0,1-.61-.73c-.11-.12-.21-.26-.32-.39s-.39-.49-.57-.74l-.5-.68a1.13,1.13,0,0,1-.1-.13l-.32-.46c-.37-.56-.73-1.11-1.08-1.68-.1-.17-.21-.34-.31-.52a33.61,33.61,0,0,1-1.68-3.27l-.31-.71a.22.22,0,0,0,0-.12c-.11-.25-.21-.51-.31-.76s-.21-.54-.31-.81-.27-.77-.4-1.16c-.23-.71-.43-1.43-.63-2.15-.08-.29-.14-.57-.2-.86s-.14-.57-.19-.86c-.11-.52-.2-1-.28-1.56s-.14-.9-.18-1.35-.09-.65-.11-1-.06-.63-.08-1v-.2c0-.2,0-.41,0-.62s0-.37,0-.57v-.91a35.28,35.28,0,0,1,70.56-.78q0,.39,0,.78Z"/><path class="cls-4" d="M210,153.16a40.74,40.74,0,0,1-28.68,39,42.73,42.73,0,0,0-78.35,0A40.73,40.73,0,1,1,142.15,123,40.58,40.58,0,0,1,210,153.16Z"/><rect class="cls-2" x="110.78" y="134.73" width="13.27" height="30.86"/><rect class="cls-2" x="163.59" y="134.73" width="13.27" height="30.86"/><ellipse class="cls-2" cx="137.27" cy="182.79" rx="4.88" ry="4.89"/><ellipse class="cls-2" cx="147.03" cy="182.79" rx="4.88" ry="4.89"/><path class="cls-2" d="M141.23,232.12l-.18-5.39c13.93-.47,16.1-17.41,16.12-17.58l5.36.63C161.63,217.29,156,231.61,141.23,232.12Z"/><path class="cls-2" d="M147,177.9a5.44,5.44,0,0,0-.57,0l-.19,0a1.53,1.53,0,0,0-.36.07l-.2.05-.32.13-.19.07a3.39,3.39,0,0,0-.39.18l-.09,0-.23.13a4.84,4.84,0,0,1-4.64,0l-.22-.12a4,4,0,0,0-.51-.24l-.18-.06c-.12,0-.25-.09-.38-.12l-.18-.05L138,178l-.17,0a4.9,4.9,0,1,0-1.27,9.71,4.5,4.5,0,0,0,1.27,0,.5.5,0,0,0,.17,0l.38-.08.18,0,.38-.13.14,0a4,4,0,0,0,.51-.24l.22-.13a4.91,4.91,0,0,1,4.65,0l.22.14.09,0,.39.19.19.06.34.11.2.05.37.08.18,0a4.89,4.89,0,0,0,1.08-9.72,4.36,4.36,0,0,0-.51,0Z"/></g></g></svg>