<svg xmlns="http://www.w3.org/2000/svg" viewBox="0 0 129.53 129.53"><defs><style>.cls-1{fill:#e9fbff;}.cls-2{fill:#fff;}</style></defs><title>profile</title><g id="Layer_2" data-name="Layer 2"><g id="OBJECTS"><circle class="cls-1" cx="64.76" cy="64.76" r="64.76" transform="translate(-12.84 113.41) rotate(-77.08)"/><ellipse class="cls-2" cx="64.76" cy="56.48" rx="25.19" ry="34.89"/><path class="cls-2" d="M64.37,89.14c-21.09,0-39.94,5.06-52.48,13a64.73,64.73,0,0,0,105.5.35C104.86,94.35,85.76,89.14,64.37,89.14Z"/><rect class="cls-2" x="51.19" y="64.68" width="27" height="41" rx="9.62"/><path class="cls-2" d="M43.55,58.46c.75,5.6-.49,10.45-2.78,10.84s-4.75-3.83-5.5-9.43S35.76,49.43,38,49,42.79,52.87,43.55,58.46Z"/><path class="cls-2" d="M86,58.46c-.76,5.6.49,10.45,2.77,10.84s4.75-3.83,5.51-9.43S93.77,49.43,91.48,49,86.73,52.87,86,58.46Z"/><path class="cls-2" d="M40.45,55.11q-1.28-8.38-2.54-16.76c-.31-2-.61-4.16.13-6.08s2.92-3.43,4.84-2.71c-.77-3.89,3.53-6.76,7.27-8A43.51,43.51,0,0,1,69.74,19.1a28.27,28.27,0,0,1,17.45,8.7,15.45,15.45,0,0,1,3.29,5.33c1.29,3.83.47,8-.36,12l-2,9.43a4.24,4.24,0,0,1-.81,2c-.78.87-2.1.93-3.27.94l-37.48.08c-2.34,0-5.41-.58-5.72-2.9"/></g></g></svg>