<svg width="197" height="197" viewBox="0 0 197 197" fill="none" xmlns="http://www.w3.org/2000/svg">
<g filter="url(#filter0_d)">
<circle cx="98.5" cy="94.5" r="68.5" fill="url(#paint0_linear)"/>
</g>
<path d="M140 82.3756C149.333 87.7642 149.333 101.236 140 106.624L88.25 136.502C78.9167 141.891 67.25 135.155 67.25 124.378L67.25 64.6221C67.25 53.8449 78.9167 47.1092 88.25 52.4978L140 82.3756Z" fill="white"/>
<path d="M99.5527 96.8143C87.0771 78.3022 73.7494 94.9819 66.9918 100.036L66.9918 64.0249C82.9862 72.1909 104.43 69.6524 113.99 75.5187C138.359 90.4719 134.033 106.556 131.42 111.676L98.5 130.283C105.518 126.133 112.028 115.326 99.5527 96.8143Z" fill="#00D3FF" fill-opacity="0.21"/>
<path d="M97.5524 61.7259C87.5538 63.9576 79.2125 65.8469 79.0137 65.9242C78.5496 66.1231 78.0414 66.7086 77.8978 67.2279C77.8205 67.5151 77.7763 72.8293 77.7763 83.6453C77.7763 92.4507 77.7431 99.6319 77.6989 99.6098C77.6437 99.5877 77.2902 99.422 76.8924 99.2232C74.2298 97.9305 70.7055 97.7096 67.8882 98.6708C63.1928 100.273 60.6738 104.394 62.0217 108.249C62.4084 109.365 62.9055 110.161 63.8004 111.078C68.4738 115.862 77.6437 115 80.9581 109.465C81.0797 109.255 81.3227 108.68 81.4995 108.194L81.8088 107.31L81.8641 94.3951L81.9193 81.4799L97.7181 77.9666C106.413 76.0332 113.649 74.4202 113.826 74.387L114.125 74.3097V82.9383V91.5668L113.495 91.2464C111.617 90.3073 109.993 89.9759 107.661 90.0532C104.502 90.1527 102.259 91.0586 100.248 93.0583C99.4305 93.8648 99.1654 94.2294 98.7787 94.9917C97.7844 97.0135 97.7623 98.947 98.7014 100.902C99.5742 102.725 100.977 104.051 103.11 105.046C106.214 106.504 110.081 106.482 113.219 104.99C115.196 104.051 116.666 102.692 117.494 101.013C118.256 99.4552 118.212 100.781 118.19 78.8284L118.157 59.0191L117.848 58.5441C117.483 57.9917 116.82 57.6492 116.168 57.6602C115.925 57.6713 107.551 59.4942 97.5524 61.7259Z" fill="white"/>
<mask id="mask0" style="mask-type:alpha" maskUnits="userSpaceOnUse" x="61" y="57" width="58" height="58">
<path d="M97.6559 61.8292C87.6574 64.0609 79.3161 65.9501 79.1172 66.0275C78.6532 66.2263 78.145 66.8119 78.0013 67.3311C77.924 67.6184 77.8798 72.9325 77.8798 83.7486C77.8798 92.5539 77.8467 99.7352 77.8025 99.7131C77.7472 99.691 77.3937 99.5253 76.996 99.3264C74.3334 98.0338 70.809 97.8128 67.9918 98.774C63.2963 100.376 60.7774 104.497 62.1252 108.353C62.5119 109.469 63.0091 110.264 63.904 111.181C68.5773 115.965 77.7472 115.103 81.0617 109.568C81.1832 109.358 81.4263 108.784 81.603 108.297L81.9124 107.414L81.9676 94.4984L82.0228 81.5832L97.8216 78.0699C106.516 76.1365 113.753 74.5235 113.93 74.4903L114.228 74.413V83.0415V91.6701L113.598 91.3497C111.72 90.4106 110.096 90.0792 107.765 90.1565C104.605 90.2559 102.362 91.1619 100.352 93.1616C99.5341 93.9681 99.2689 94.3327 98.8822 95.095C97.8879 97.1168 97.8658 99.0502 98.8049 101.006C99.6777 102.829 101.081 104.154 103.213 105.149C106.318 106.607 110.184 106.585 113.322 105.094C115.3 104.154 116.769 102.796 117.598 101.116C118.36 99.5584 118.316 100.884 118.294 78.9316L118.261 59.1224L117.951 58.6473C117.587 58.0949 116.924 57.7524 116.272 57.7635C116.029 57.7745 107.654 59.5975 97.6559 61.8292Z" fill="white"/>
</mask>
<g mask="url(#mask0)">
<path d="M49.3588 59.6716H101.778L117.907 66.2699V116.123H49.3588V59.6716Z" fill="url(#paint1_linear)"/>
</g>
<path d="M67.1583 99.0823C61.9321 100.332 57.1079 110.343 67.1583 113.378V99.0823Z" fill="white"/>
<defs>
<filter id="filter0_d" x="0" y="0" width="197" height="197" filterUnits="userSpaceOnUse" color-interpolation-filters="sRGB">
<feFlood flood-opacity="0" result="BackgroundImageFix"/>
<feColorMatrix in="SourceAlpha" type="matrix" values="0 0 0 0 0 0 0 0 0 0 0 0 0 0 0 0 0 0 127 0" result="hardAlpha"/>
<feMorphology radius="15" operator="dilate" in="SourceAlpha" result="effect1_dropShadow"/>
<feOffset dy="4"/>
<feGaussianBlur stdDeviation="7.5"/>
<feColorMatrix type="matrix" values="0 0 0 0 0.105882 0 0 0 0 0.470588 0 0 0 0 1 0 0 0 0.13 0"/>
<feBlend mode="normal" in2="BackgroundImageFix" result="effect1_dropShadow"/>
<feBlend mode="normal" in="SourceGraphic" in2="effect1_dropShadow" result="shape"/>
</filter>
<linearGradient id="paint0_linear" x1="98.5" y1="26" x2="98.5" y2="163" gradientUnits="userSpaceOnUse">
<stop stop-color="#2551FF"/>
<stop offset="1" stop-color="#03CBFF"/>
</linearGradient>
<linearGradient id="paint1_linear" x1="83.633" y1="59.6716" x2="83.633" y2="116.123" gradientUnits="userSpaceOnUse">
<stop stop-color="#1B77FF"/>
<stop offset="1" stop-color="#148EFF"/>
</linearGradient>
</defs>
</svg>
