<svg width="197" height="197" viewBox="0 0 197 197" fill="none" xmlns="http://www.w3.org/2000/svg">
<g filter="url(#filter0_d)">
<circle cx="98.5" cy="94.5" r="68.5" fill="white"/>
<circle cx="98.5" cy="94.5" r="68" stroke="#EEE7E7"/>
</g>
<path d="M137 82.3757C146.333 87.7643 146.333 101.236 137 106.624L89.75 133.904C80.4166 139.293 68.75 132.557 68.75 121.78L68.75 67.2202C68.75 56.443 80.4167 49.7072 89.75 55.0958L137 82.3757Z" fill="url(#paint0_linear)"/>
<path d="M99.5021 96.7031C87.6254 79.0795 74.9374 94.9586 68.5042 99.7696L68.5042 65.4875C83.7308 73.2616 104.145 70.8449 113.246 76.4296C136.446 90.6651 132.328 105.977 129.84 110.851L98.5 128.565C105.181 124.615 111.379 114.327 99.5021 96.7031Z" fill="url(#paint1_linear)"/>
<path d="M97.5978 63.2989C88.0792 65.4235 80.1383 67.2221 79.949 67.2957C79.5072 67.485 79.0234 68.0425 78.8867 68.5368C78.8131 68.8103 78.771 73.8693 78.771 84.1662C78.771 92.5489 78.7394 99.3855 78.6974 99.3644C78.6448 99.3434 78.3082 99.1856 77.9296 98.9963C75.3948 97.7657 72.0396 97.5554 69.3576 98.4704C64.8875 99.9955 62.4895 103.919 63.7726 107.589C64.1408 108.652 64.6141 109.409 65.466 110.282C69.915 114.836 78.6448 114.016 81.8001 108.746C81.9158 108.546 82.1472 108 82.3155 107.537L82.61 106.695L82.6626 94.4L82.7152 82.1047L97.7556 78.7601C106.033 76.9195 112.922 75.3839 113.091 75.3523L113.375 75.2787V83.4931V91.7075L112.775 91.4025C110.987 90.5085 109.441 90.1929 107.222 90.2665C104.214 90.3612 102.078 91.2237 100.164 93.1274C99.3859 93.8952 99.1334 94.2423 98.7653 94.968C97.8187 96.8928 97.7977 98.7334 98.6917 100.595C99.5226 102.33 100.858 103.593 102.888 104.539C105.844 105.928 109.525 105.907 112.512 104.487C114.395 103.593 115.794 102.299 116.582 100.7C117.308 99.2172 117.266 100.479 117.245 79.5805L117.214 60.7221L116.919 60.2698C116.572 59.7439 115.941 59.4179 115.32 59.4284C115.089 59.4389 107.116 61.1743 97.5978 63.2989Z" fill="#00D3FF"/>
<mask id="mask0" style="mask-type:alpha" maskUnits="userSpaceOnUse" x="63" y="59" width="55" height="55">
<path d="M97.5978 63.2989C88.0792 65.4235 80.1383 67.2221 79.949 67.2957C79.5072 67.485 79.0234 68.0425 78.8867 68.5368C78.813 68.8103 78.771 73.8693 78.771 84.1662C78.771 92.5489 78.7394 99.3855 78.6973 99.3644C78.6448 99.3434 78.3082 99.1856 77.9295 98.9963C75.3948 97.7657 72.0396 97.5554 69.3576 98.4704C64.8875 99.9955 62.4894 103.919 63.7726 107.589C64.1407 108.652 64.614 109.409 65.466 110.282C69.915 114.836 78.6448 114.016 81.8001 108.746C81.9158 108.546 82.1472 108 82.3155 107.537L82.61 106.695L82.6626 94.4L82.7151 82.1047L97.7556 78.7601C106.033 76.9195 112.922 75.3839 113.091 75.3523L113.374 75.2787V83.4931V91.7075L112.775 91.4025C110.987 90.5085 109.441 90.1929 107.222 90.2665C104.214 90.3612 102.078 91.2237 100.164 93.1274C99.3858 93.8952 99.1334 94.2423 98.7653 94.968C97.8187 96.8928 97.7977 98.7334 98.6917 100.595C99.5226 102.33 100.858 103.593 102.888 104.539C105.844 105.928 109.525 105.907 112.512 104.487C114.395 103.593 115.794 102.299 116.582 100.7C117.308 99.2172 117.266 100.479 117.245 79.5805L117.213 60.7221L116.919 60.2698C116.572 59.7439 115.941 59.4179 115.32 59.4284C115.089 59.4389 107.116 61.1743 97.5978 63.2989Z" fill="white"/>
</mask>
<g mask="url(#mask0)">
<path d="M51.912 62.22H101.815L117.17 68.5015V115.962H51.912V62.22Z" fill="white"/>
</g>
<path d="M68.6627 98.8623C63.6873 100.052 59.0948 109.582 68.6627 112.472V98.8623Z" fill="#089AF1"/>
<defs>
<filter id="filter0_d" x="0" y="0" width="197" height="197" filterUnits="userSpaceOnUse" color-interpolation-filters="sRGB">
<feFlood flood-opacity="0" result="BackgroundImageFix"/>
<feColorMatrix in="SourceAlpha" type="matrix" values="0 0 0 0 0 0 0 0 0 0 0 0 0 0 0 0 0 0 127 0" result="hardAlpha"/>
<feMorphology radius="15" operator="dilate" in="SourceAlpha" result="effect1_dropShadow"/>
<feOffset dy="4"/>
<feGaussianBlur stdDeviation="7.5"/>
<feColorMatrix type="matrix" values="0 0 0 0 0 0 0 0 0 0 0 0 0 0 0 0 0 0 0.04 0"/>
<feBlend mode="normal" in2="BackgroundImageFix" result="effect1_dropShadow"/>
<feBlend mode="normal" in="SourceGraphic" in2="effect1_dropShadow" result="shape"/>
</filter>
<linearGradient id="paint0_linear" x1="53.3079" y1="58.5557" x2="140.9" y2="101.305" gradientUnits="userSpaceOnUse">
<stop stop-color="#254EFF"/>
<stop offset="1" stop-color="#01D0FF"/>
</linearGradient>
<linearGradient id="paint1_linear" x1="78.0046" y1="74.8963" x2="124.62" y2="119.225" gradientUnits="userSpaceOnUse">
<stop stop-color="#0353CD"/>
<stop offset="1" stop-color="#0453CD" stop-opacity="0"/>
</linearGradient>
</defs>
</svg>
