<svg width="490" height="197" viewBox="0 0 490 197" fill="none" xmlns="http://www.w3.org/2000/svg">
<g filter="url(#filter0_d)">
<circle cx="98.5" cy="94.5" r="68.5" fill="url(#paint0_linear)"/>
</g>
<path d="M140 82.3756C149.333 87.7642 149.333 101.236 140 106.624L88.25 136.502C78.9167 141.891 67.25 135.155 67.25 124.378L67.25 64.6221C67.25 53.8449 78.9167 47.1092 88.25 52.4978L140 82.3756Z" fill="white"/>
<path d="M99.5526 96.8143C87.0771 78.3022 73.7494 94.9819 66.9918 100.036L66.9918 64.0249C82.9862 72.1909 104.43 69.6524 113.99 75.5187C138.359 90.4719 134.033 106.556 131.42 111.676L98.5 130.283C105.518 126.133 112.028 115.326 99.5526 96.8143Z" fill="#00D3FF" fill-opacity="0.21"/>
<path d="M97.5524 61.7259C87.5538 63.9576 79.2125 65.8469 79.0137 65.9242C78.5496 66.1231 78.0414 66.7086 77.8978 67.2279C77.8205 67.5151 77.7763 72.8293 77.7763 83.6453C77.7763 92.4507 77.7431 99.6319 77.6989 99.6098C77.6437 99.5877 77.2901 99.422 76.8924 99.2232C74.2298 97.9305 70.7055 97.7096 67.8882 98.6708C63.1928 100.273 60.6738 104.394 62.0217 108.249C62.4084 109.365 62.9055 110.161 63.8004 111.078C68.4738 115.862 77.6437 115 80.9581 109.465C81.0796 109.255 81.3227 108.68 81.4995 108.194L81.8088 107.31L81.8641 94.3951L81.9193 81.4799L97.7181 77.9666C106.413 76.0332 113.649 74.4202 113.826 74.387L114.125 74.3097V82.9383V91.5668L113.495 91.2464C111.617 90.3073 109.993 89.9759 107.661 90.0532C104.502 90.1527 102.259 91.0586 100.248 93.0583C99.4305 93.8648 99.1654 94.2294 98.7787 94.9917C97.7844 97.0135 97.7623 98.947 98.7014 100.902C99.5742 102.725 100.977 104.051 103.11 105.046C106.214 106.504 110.081 106.482 113.219 104.99C115.196 104.051 116.666 102.692 117.494 101.013C118.256 99.4552 118.212 100.781 118.19 78.8284L118.157 59.0191L117.848 58.5441C117.483 57.9917 116.82 57.6492 116.168 57.6602C115.925 57.6713 107.551 59.4942 97.5524 61.7259Z" fill="white"/>
<mask id="mask0" style="mask-type:alpha" maskUnits="userSpaceOnUse" x="61" y="57" width="58" height="58">
<path d="M97.6559 61.8292C87.6574 64.0609 79.3161 65.9501 79.1172 66.0275C78.6532 66.2263 78.145 66.8119 78.0013 67.3311C77.924 67.6184 77.8798 72.9325 77.8798 83.7486C77.8798 92.5539 77.8467 99.7352 77.8025 99.7131C77.7472 99.691 77.3937 99.5253 76.996 99.3264C74.3334 98.0338 70.809 97.8128 67.9918 98.774C63.2963 100.376 60.7774 104.497 62.1252 108.353C62.5119 109.469 63.0091 110.264 63.904 111.181C68.5773 115.965 77.7472 115.103 81.0617 109.568C81.1832 109.358 81.4263 108.784 81.603 108.297L81.9124 107.414L81.9676 94.4984L82.0228 81.5832L97.8216 78.0699C106.516 76.1365 113.753 74.5235 113.93 74.4903L114.228 74.413V83.0415V91.6701L113.598 91.3497C111.72 90.4106 110.096 90.0792 107.765 90.1565C104.605 90.2559 102.362 91.1619 100.352 93.1616C99.5341 93.9681 99.2689 94.3327 98.8822 95.095C97.8879 97.1168 97.8658 99.0502 98.8049 101.006C99.6777 102.829 101.081 104.154 103.213 105.149C106.318 106.607 110.184 106.585 113.322 105.094C115.3 104.154 116.769 102.796 117.598 101.116C118.36 99.5584 118.316 100.884 118.294 78.9316L118.261 59.1224L117.951 58.6473C117.587 58.0949 116.924 57.7524 116.272 57.7635C116.029 57.7745 107.654 59.5975 97.6559 61.8292Z" fill="white"/>
</mask>
<g mask="url(#mask0)">
<path d="M49.3588 59.6716H101.778L117.907 66.2699V116.123H49.3588V59.6716Z" fill="url(#paint1_linear)"/>
</g>
<path d="M67.1583 99.0823C61.9321 100.332 57.1079 110.343 67.1583 113.378V99.0823Z" fill="white"/>
<path d="M213.46 66.284H232.36C238.688 66.284 244.176 67.46 248.824 69.812C253.472 72.164 257.028 75.524 259.492 79.892C262.012 84.26 263.272 89.412 263.272 95.348C263.272 105.092 260.444 112.484 254.788 117.524C249.188 122.508 241.32 125 231.184 125H213.46V66.284ZM231.1 117.86C238.94 117.86 244.82 115.928 248.74 112.064C252.66 108.2 254.62 102.628 254.62 95.348C254.62 88.628 252.688 83.308 248.824 79.388C245.016 75.468 239.556 73.508 232.444 73.508H222.028V117.86H231.1ZM272.523 66.284H299.487C304.695 66.284 308.727 67.628 311.583 70.316C314.439 73.004 315.867 76.924 315.867 82.076C315.867 84.988 315.167 87.564 313.767 89.804C312.423 91.988 310.631 93.612 308.391 94.676C314.663 96.524 317.799 101.088 317.799 108.368C317.799 111.784 317.043 114.752 315.531 117.272C314.075 119.736 312.058 121.64 309.482 122.984C306.907 124.328 304.051 125 300.915 125H272.523V66.284ZM298.395 91.484C301.139 91.484 303.295 90.728 304.863 89.216C306.431 87.704 307.215 85.464 307.215 82.496C307.215 79.08 306.431 76.7 304.863 75.356C303.351 73.956 300.999 73.256 297.807 73.256H281.091V91.484H298.395ZM298.983 118.028C302.287 118.028 304.807 117.3 306.543 115.844C308.279 114.388 309.147 111.896 309.147 108.368C309.147 104.84 308.223 102.32 306.375 100.808C304.583 99.296 301.867 98.54 298.227 98.54H281.091V118.028H298.983ZM349.249 126.26C341.801 126.26 335.949 124.412 331.693 120.716C327.493 116.964 325.393 111.7 325.393 104.924C325.393 98.316 327.269 93.08 331.021 89.216C334.829 85.352 340.233 83.42 347.233 83.42C351.881 83.42 355.829 84.316 359.077 86.108C362.325 87.844 364.761 90.28 366.385 93.416C368.065 96.496 368.905 100.024 368.905 104V108.2H333.457C333.737 112.008 335.333 114.864 338.245 116.768C341.213 118.616 345.217 119.54 350.257 119.54C352.833 119.54 355.437 119.316 358.069 118.868C360.701 118.364 363.025 117.72 365.041 116.936V123.74C363.249 124.468 360.869 125.056 357.901 125.504C354.989 126.008 352.105 126.26 349.249 126.26ZM360.925 102.236C360.813 98.428 359.553 95.488 357.145 93.416C354.793 91.288 351.433 90.224 347.065 90.224C342.809 90.224 339.505 91.316 337.153 93.5C334.801 95.684 333.569 98.596 333.457 102.236H360.925ZM392.627 126.26C387.755 126.26 383.835 125.028 380.867 122.564C377.955 120.044 376.499 116.656 376.499 112.4C376.499 107.92 377.899 104.476 380.699 102.068C383.555 99.604 387.587 98.372 392.795 98.372C398.339 98.372 403.043 99.492 406.907 101.732V99.632C406.907 96.44 405.927 94.088 403.967 92.576C402.063 91.008 399.039 90.224 394.895 90.224C392.431 90.224 390.023 90.476 387.671 90.98C385.375 91.428 383.303 92.072 381.455 92.912V86.024C383.135 85.24 385.319 84.624 388.007 84.176C390.695 83.672 393.299 83.42 395.819 83.42C402.483 83.42 407.411 84.904 410.603 87.872C413.851 90.784 415.475 94.844 415.475 100.052V125H407.495V120.464C405.759 122.368 403.687 123.824 401.279 124.832C398.927 125.784 396.043 126.26 392.627 126.26ZM394.727 119.792C397.415 119.792 399.851 119.26 402.035 118.196C404.219 117.132 405.843 115.648 406.907 113.744V108.284C403.267 105.932 399.207 104.756 394.727 104.756C391.479 104.756 389.043 105.4 387.419 106.688C385.851 107.92 385.067 109.824 385.067 112.4C385.067 117.328 388.287 119.792 394.727 119.792ZM439.41 126.26C435.322 126.26 432.158 125.084 429.918 122.732C427.734 120.38 426.642 117.048 426.642 112.736V91.232H420.51V84.68H426.642V72.584H435.21V84.68H445.122V91.232H435.21V112.148C435.21 114.836 435.714 116.74 436.722 117.86C437.786 118.98 439.69 119.54 442.434 119.54C444.058 119.54 445.682 119.176 447.306 118.448V125.168C445.178 125.896 442.546 126.26 439.41 126.26ZM468.516 126.26C465.716 126.26 462.748 125.896 459.612 125.168C456.476 124.496 454.012 123.572 452.22 122.396V115.172C454.404 116.46 456.924 117.524 459.78 118.364C462.636 119.148 465.408 119.54 468.096 119.54C471.12 119.54 473.332 119.176 474.732 118.448C476.132 117.72 476.832 116.544 476.832 114.92C476.832 113.688 476.496 112.708 475.824 111.98C475.208 111.196 474.116 110.496 472.548 109.88C471.036 109.264 468.74 108.536 465.66 107.696C462.356 106.744 459.724 105.792 457.764 104.84C455.86 103.832 454.404 102.572 453.396 101.06C452.444 99.548 451.968 97.588 451.968 95.18C451.968 91.316 453.48 88.404 456.504 86.444C459.584 84.428 463.7 83.42 468.852 83.42C471.54 83.42 474.172 83.672 476.748 84.176C479.324 84.68 481.396 85.38 482.964 86.276V93.332C481.34 92.38 479.324 91.624 476.916 91.064C474.564 90.504 472.156 90.224 469.692 90.224C466.724 90.224 464.456 90.588 462.888 91.316C461.32 92.044 460.535 93.332 460.535 95.18C460.535 96.356 460.872 97.308 461.544 98.036C462.216 98.764 463.28 99.408 464.736 99.968C466.248 100.472 468.628 101.144 471.876 101.984C476.972 103.384 480.5 105.036 482.46 106.94C484.476 108.844 485.484 111.476 485.484 114.836C485.484 118.308 484.056 121.08 481.2 123.152C478.344 125.224 474.116 126.26 468.516 126.26Z" fill="#1B252F"/>
<defs>
<filter id="filter0_d" x="0" y="0" width="197" height="197" filterUnits="userSpaceOnUse" color-interpolation-filters="sRGB">
<feFlood flood-opacity="0" result="BackgroundImageFix"/>
<feColorMatrix in="SourceAlpha" type="matrix" values="0 0 0 0 0 0 0 0 0 0 0 0 0 0 0 0 0 0 127 0" result="hardAlpha"/>
<feMorphology radius="15" operator="dilate" in="SourceAlpha" result="effect1_dropShadow"/>
<feOffset dy="4"/>
<feGaussianBlur stdDeviation="7.5"/>
<feColorMatrix type="matrix" values="0 0 0 0 0.105882 0 0 0 0 0.470588 0 0 0 0 1 0 0 0 0.13 0"/>
<feBlend mode="normal" in2="BackgroundImageFix" result="effect1_dropShadow"/>
<feBlend mode="normal" in="SourceGraphic" in2="effect1_dropShadow" result="shape"/>
</filter>
<linearGradient id="paint0_linear" x1="98.5" y1="26" x2="98.5" y2="163" gradientUnits="userSpaceOnUse">
<stop stop-color="#2551FF"/>
<stop offset="1" stop-color="#03CBFF"/>
</linearGradient>
<linearGradient id="paint1_linear" x1="83.633" y1="59.6716" x2="83.633" y2="116.123" gradientUnits="userSpaceOnUse">
<stop stop-color="#1B77FF"/>
<stop offset="1" stop-color="#148EFF"/>
</linearGradient>
</defs>
</svg>
